<svg width="373" height="66" viewBox="0 0 373 66" fill="none" xmlns="http://www.w3.org/2000/svg">
<g clip-path="url(#clip0_1692_52)">
<path d="M366.3 54C367.8 54.1 368.9 55.3 368.9 56.8C368.8 58.3 367.6 59.5 366.1 59.4C364.6 59.3 363.5 58.1 363.5 56.6C363.6 55.1 364.8 53.9 366.3 54ZM366.3 54.5C365.2 54.5 364.2 55.4 364.2 56.6C364.2 57.8 365 58.8 366.2 58.8C367.3 58.9 368.3 57.9 368.4 56.7C368.3 55.6 367.4 54.6 366.3 54.5ZM365.7 58.3H365.1L365.2 55.3C365.4 55.3 365.7 55.2 366.2 55.3C366.7 55.3 367 55.4 367.2 55.6C367.4 55.7 367.4 55.9 367.4 56.3C367.4 56.7 367.1 56.9 366.8 57C367.1 57.1 367.2 57.3 367.3 57.8C367.3 58.3 367.4 58.5 367.4 58.6H366.7C366.6 58.5 366.6 58.2 366.6 57.8C366.6 57.5 366.4 57.3 366.1 57.3H365.8L365.7 58.3ZM365.7 56.5H366C366.4 56.5 366.7 56.4 366.7 56.1C366.7 55.8 366.5 55.6 366.1 55.6C365.9 55.6 365.8 55.6 365.8 55.6L365.7 56.5Z" fill="#62B5E5"/>
<path d="M359.2 52.3C344.8 66.7 324.4 69.5 313.5 58.7C302.6 47.8 305.5 27.4 319.9 13C334.3 -1.4 354.8 -4.3 365.6 6.6C376.4 17.4 373.6 37.9 359.2 52.3Z" fill="#62B5E5"/>
<path d="M353.4 57.2H324.4C323.1 57.2 322 56.4 321.6 55.2C321.2 54 321.6 52.7 322.6 51.9L331.5 45.4C333.4 44.1 336.1 45.3 336.1 47.7C336.1 48.6 335.7 49.5 334.9 50.1C334.9 50.1 333.7 50.9 333.2 51.3C339.2 51.3 343.5 51.3 349.3 51.3C340.8 44.8 323.5 31.5 323.5 31.5C322.9 31 322.4 30.2 322.4 29.1C322.4 27.6 323.8 26.3 325.2 26.3H357.8C359.4 26.3 360.6 27.6 360.6 29.2C360.6 30.2 360.1 31 359.5 31.4L351 38.5C349.8 39.5 347.9 39.4 346.9 38.1C346.4 37.6 346.2 36.9 346.2 36.3C346.2 35.5 346.6 34.6 347.2 34.1C347.2 34.1 348.6 32.9 349.6 32.1C343.7 32.1 339.9 32.1 333.8 32.1C341.5 38 356.7 49.6 359.4 51.7C358.6 53 354.9 56.4 353.4 57.2ZM325.4 18H357.8C359.4 18 360.7 19.3 360.7 20.9C360.7 22.5 359.4 23.8 357.8 23.8H325.4C323.8 23.8 322.5 22.5 322.5 20.9C322.5 19.3 323.8 18 325.4 18Z" fill="white"/>
<path d="M348.7 11L353.7 7.69998C355.1 6.79998 356.9 7.19999 357.8 8.49998C358.7 9.79998 358.3 11.7 357 12.6L352 15.9C350.6 16.8 348.8 16.4 347.9 15.1C346.9 13.7 347.3 11.9 348.7 11Z" fill="white"/>
<path d="M117.5 41.7H124.1C126.6 41.7 130.4 41.8 133 43.5C135.1 45 135.9 47.0999 135.9 49.2999C135.9 50.5999 135.6 51.5999 135.4 52.2999C133.5 57.0999 127.8 57.2 125.6 57.2H117.5V41.7ZM122.7 44.9V54.0999H124.3C127 54.0999 130.8 53.9 130.8 49.5C130.8 48.4 130.7 47.3 129.7 46.4C128.3 45 126.3 45 124.7 45H122.7V44.9Z" fill="#CB333B"/>
<path d="M138.8 41.7H149C154.4 41.7 156.5 44 156.5 46.7C156.5 49.8 153.7 50.6999 152.3 51.0999L157 57.2999H151.3L147.2 51.7H144V57.2999H138.8V41.7ZM144 44.5999V48.7999H148.3C149 48.7999 151.4 48.7 151.4 46.7C151.4 44.7 149.5 44.5999 148.4 44.5999H144Z" fill="#CB333B"/>
<path d="M255.4 41.7H265.5C270.9 41.7 273 44 273 46.7C273 49.8 270.2 50.6999 268.8 51.0999L273.5 57.2999H267.8L263.7 51.7H260.5V57.2999H255.3V41.7H255.4ZM260.5 44.5999V48.7999H264.8C265.5 48.7999 267.9 48.7 267.9 46.7C267.9 44.7 266 44.5999 264.9 44.5999H260.5Z" fill="#CB333B"/>
<path d="M176.7 41.7V50.4C176.7 51.9 176.6 53.4 175.5 54.7999C173.3 57.4999 168.7 57.5999 167.8 57.5999C166.3 57.5999 164.4 57.2999 163 56.7999C159 55.2999 159 52.5 159.1 50.4V41.7H164.3V51.4C164.3 52.2 164.3 52.9 164.7 53.2999C165.3 54.0999 166.7 54.4 168 54.4C171.5 54.4 171.5 52.6 171.5 51.4V41.7H176.7Z" fill="#CB333B"/>
<path d="M194.8 55.7999C194 56.4 192.2 57.5999 188.8 57.5999C183.1 57.5999 179.5 54.1 179.5 49.5C179.5 44.5 183.8 41.2 189.6 41.2C195 41.2 197.7 43.8999 198.7 44.7999L194.8 46.5999C194.1 45.7999 192.9 44.4 190 44.4C186.1 44.4 184.6 46.8 184.6 49.5C184.6 51.3 185.2 52.7 186.2 53.5C187 54.1 188.4 54.5999 190 54.5999C190.9 54.5999 192 54.4 192.8 54C194.1 53.3 194.3 52.5 194.5 51.7H189.9V48.7H198.8V57.4H194.8V55.7999Z" fill="#CB333B"/>
<path d="M231.2 41.7V57.2999H226.3L226.6 46.2L226.7 44.5999L226.5 45.2C226.2 46.1 226.2 46.2 226 46.9L222.1 57.4H217.7L214 47.4L213.1 44.5999C213.2 45.7999 213.2 46.0999 213.3 47.5999L213.6 57.4H208.7V41.7H216.2L219.3 50.4L220 52.9C220.3 51.8 220.3 51.7 220.5 51L223.8 41.7H231.2Z" fill="#CB333B"/>
<path d="M245.9 41.7L253.5 57.2999H248L247 54.7999H239.4L238.4 57.2999H233L240.6 41.7H245.9ZM243.2 45.4C242.9 46.2 242.6 46.9999 242.4 47.7999C242 48.9999 241.2 50.8 240.7 52H245.9L243.2 45.4Z" fill="#CB333B"/>
<path d="M273.7 41.7H291.3V44.7999H285.1V57.2999H279.9V44.7H273.7V41.7Z" fill="#CB333B"/>
<path d="M38.6 7.30005H49.8V17.3H60.5V7.30005H71.9V34.7001H60.6V24.1H49.8V34.7001H38.6V7.30005Z" fill="#CB333B"/>
<path d="M113.8 20.7C113.8 27.6 108.5 35.5999 94.5 35.5999C79.9 35.5999 75.5 27.3 75.5 21C75.5 13.2 81.8 6.19995 94.7 6.19995C108.8 6.29995 113.8 14.2 113.8 20.7ZM86.9 21C86.9 25.8 89.4 28.6 94.8 28.6C99.3 28.6 102.5 25.8 102.5 20.7C102.5 19.4 102.4 18.2 101.8 17.1C100.1 13.3 95.7 13.2 94.7 13.2C90.7 13.2 86.9 15.3 86.9 21Z" fill="#CB333B"/>
<path d="M117.5 7.30005H137.9C141.8 7.40005 145.2 7.50005 148 9.80005C150.6 11.9 151 14.5 151 16.2C151 18.5 150.4 21 147.6 23.2C144.6 25.6 141.3 25.7 137.5 25.8H128.8V34.7001H117.5V7.30005ZM128.8 13V20H135.3C135.9 20 136.6 20 137.2 19.8C138.9 19.4 139.9 18.1 139.9 16.5C139.9 13.3 136.6 13.1 135.2 13H128.8Z" fill="#CB333B"/>
<path d="M154.2 7.30005H174.6C178.5 7.40005 181.9 7.50005 184.7 9.80005C187.3 11.9 187.7 14.5 187.7 16.2C187.7 18.5 187.1 21 184.3 23.2C181.3 25.6 178 25.7 174.2 25.8H165.5V34.7001H154.2V7.30005ZM165.5 13V20H172C172.6 20 173.3 20 173.9 19.8C175.6 19.4 176.6 18.1 176.6 16.5C176.6 13.3 173.3 13.1 171.9 13H165.5Z" fill="#CB333B"/>
<path d="M190.8 7.30005H219V13.3H202.1V17.4H217.9V23.3H202.1V28.7001H220.5V34.6H190.8V7.30005Z" fill="#CB333B"/>
<path d="M224.1 7.30005H241.9C245.3 7.30005 248.5 7.40005 250.7 8.10005C255.4 9.70005 256.9 13.4 256.9 16C256.9 20 254.2 22.4 249.6 23.6L258.3 34.7001H245.8L238.9 25H235.6V34.7001H224.3V7.30005H224.1ZM235.4 13V19.4H240.1C242 19.4 245.5 19.3 245.5 16.2C245.5 13.1 242 13 240 13H235.4Z" fill="#CB333B"/>
<path d="M266 25.2001C268.1 28.3001 272.9 28.8 276.2 28.8C278.1 28.8 281.3 28.4001 281.3 26.7001C281.3 25.8001 280.7 25.2001 279.1 25C277.9 24.8 271.8 23.8 270.1 23.5C263.9 22.5 260.4 19.6 260.4 15.5C260.4 9.80005 266.9 6.30005 276.1 6.30005C282.8 6.30005 288.7 7.90005 292.1 11.2L285 15.7C283.3 13.7 279.4 12.9 275.7 12.9C273.8 12.9 271.7 13.3 271.7 14.7C271.7 16 273.5 16.3 276.6 16.8C284.5 18.1 292.4 18.9001 292.4 25.7001C292.4 31.3001 286.5 35.4001 275.6 35.4001C268.2 35.4001 262 33.9 257.4 29.4L266 25.2001Z" fill="#CB333B"/>
<path d="M8.6 25.2001C10.7 28.3001 15.5 28.8 18.8 28.8C20.7 28.8 23.9 28.4001 23.9 26.7001C23.9 25.8001 23.3 25.2001 21.7 25C20.5 24.8 14.4 23.8 12.7 23.5C6.5 22.5 3 19.6 3 15.5C3 9.80005 9.5 6.30005 18.7 6.30005C25.4 6.30005 31.3 7.90005 34.7 11.2L27.6 15.7C25.9 13.7 22 12.9 18.3 12.9C16.4 12.9 14.3 13.3 14.3 14.7C14.3 16 16.1 16.3 19.2 16.8C27.1 18.2 35 19 35 25.8C35 31.4 29.1 35.5 18.2 35.5C10.8 35.5 4.6 34 0 29.5L8.6 25.2001Z" fill="#CB333B"/>
</g>
<defs>
<clipPath id="clip0_1692_52">
<rect width="372.2" height="65.3" fill="white"/>
</clipPath>
</defs>
</svg>
